<svg width="41" height="26" viewBox="0 0 41 26" fill="none" xmlns="http://www.w3.org/2000/svg">
<path d="M2.00006 19.6762V24.4762" stroke="#F97316" stroke-width="2.6" stroke-linecap="round" stroke-linejoin="round"/>
<path d="M20.6734 14.8762V5.27617C20.6734 3.50886 22.3454 2.07617 24.4081 2.07617H31.8774C33.9401 2.07617 35.6121 3.50886 35.6121 5.27617V8.47617" stroke="#F97316" stroke-width="2.6" stroke-linecap="round" stroke-linejoin="round"/>
<path d="M20.6734 14.8762V5.27617C20.6734 3.50886 19.0014 2.07617 16.9388 2.07617H9.46943C7.40682 2.07617 5.73476 3.50886 5.73476 5.27617V8.47617" stroke="#F97316" stroke-width="2.6" stroke-linecap="round" stroke-linejoin="round"/>
<path d="M35.6121 8.47614C33.5494 8.47614 31.8774 9.90882 31.8774 11.6761V14.8761H9.4694V11.6761C9.4694 9.90882 7.79733 8.47614 5.73473 8.47614C3.67213 8.47614 2.00006 9.90882 2.00006 11.6761V21.2761H39.3467V11.6761C39.3467 9.90882 37.6747 8.47614 35.6121 8.47614Z" stroke="#F97316" stroke-width="2.6" stroke-linecap="round" stroke-linejoin="round"/>
<path d="M39.3467 19.6762V24.4762" stroke="#F97316" stroke-width="2.6" stroke-linecap="round" stroke-linejoin="round"/>
</svg>
